<svg xmlns="http://www.w3.org/2000/svg" width="229" height="67" viewBox="0 0 229 67">
  <g id="Group_4" data-name="Group 4" transform="translate(-640 -1309)">
    <g id="Rectangle_5" data-name="Rectangle 5" transform="translate(640 1309)" fill="#fff" stroke="#707070" stroke-width="1">
      <rect width="229" height="67" rx="33.5" stroke="none"/>
      <rect x="0.5" y="0.5" width="228" height="66" rx="33" fill="none"/>
    </g>
    <path id="date_range_FILL0_wght400_GRAD0_opsz48" d="M15.3,28.3a1.964,1.964,0,1,1,1.425-.575A1.935,1.935,0,0,1,15.3,28.3Zm8.85,0a1.964,1.964,0,1,1,1.425-.575A1.935,1.935,0,0,1,24.15,28.3Zm8.5,0a1.964,1.964,0,1,1,1.425-.575A1.935,1.935,0,0,1,32.65,28.3ZM9,44a2.878,2.878,0,0,1-2.1-.9A2.878,2.878,0,0,1,6,41V10a2.878,2.878,0,0,1,.9-2.1A2.878,2.878,0,0,1,9,7h3.25V5.55a1.5,1.5,0,0,1,.45-1.1A1.557,1.557,0,0,1,13.85,4a1.643,1.643,0,0,1,1.175.45A1.515,1.515,0,0,1,15.5,5.6V7h17V5.55a1.5,1.5,0,0,1,.45-1.1A1.557,1.557,0,0,1,34.1,4a1.643,1.643,0,0,1,1.175.45A1.515,1.515,0,0,1,35.75,5.6V7H39a2.878,2.878,0,0,1,2.1.9A2.878,2.878,0,0,1,42,10V41a3.076,3.076,0,0,1-3,3Zm0-3H39V19.5H9ZM9,16.5H39V10H9Zm0,0v0Z" transform="translate(664 1319)"/>
    <text id="Calender" transform="translate(731 1356)" fill="#494242" font-size="25" font-family="SansSerifBold, SansSerif"><tspan x="0" y="0">Calender</tspan></text>
  </g>
</svg>
