<svg xmlns="http://www.w3.org/2000/svg" width="229" height="67" viewBox="0 0 229 67">
  <g id="Group_1" data-name="Group 1" transform="translate(-368 -1194)">
    <g id="Rectangle_2" data-name="Rectangle 2" transform="translate(368 1194)" fill="#fff" stroke="#707070" stroke-width="1">
      <rect width="229" height="67" rx="33.5" stroke="none"/>
      <rect x="0.5" y="0.5" width="228" height="66" rx="33" fill="none"/>
    </g>
    <path id="grid_view_FILL0_wght400_GRAD0_opsz48" d="M9,22.5a2.988,2.988,0,0,1-3-3V9A2.988,2.988,0,0,1,9,6H19.5a2.988,2.988,0,0,1,3,3V19.5a2.988,2.988,0,0,1-3,3ZM9,42a2.988,2.988,0,0,1-3-3V28.5a2.988,2.988,0,0,1,3-3H19.5a2.988,2.988,0,0,1,3,3V39a2.988,2.988,0,0,1-3,3ZM28.5,22.5a2.988,2.988,0,0,1-3-3V9a2.988,2.988,0,0,1,3-3H39a2.988,2.988,0,0,1,3,3V19.5a2.988,2.988,0,0,1-3,3Zm0,19.5a2.988,2.988,0,0,1-3-3V28.5a2.988,2.988,0,0,1,3-3H39a2.988,2.988,0,0,1,3,3V39a2.988,2.988,0,0,1-3,3ZM9,19.5H19.5V9H9Zm19.5,0H39V9H28.5Zm0,19.5H39V28.5H28.5ZM9,39H19.5V28.5H9ZM28.5,19.5ZM28.5,28.5ZM19.5,28.5ZM19.5,19.5Z" transform="translate(385 1203)"/>
    <text id="Courses" transform="translate(452 1236)" fill="#494242" font-size="25" font-family="SansSerifBold, SansSerif"><tspan x="0" y="0">Courses</tspan></text>
  </g>
</svg>
