<svg xmlns="http://www.w3.org/2000/svg" width="229" height="67" viewBox="0 0 229 67">
  <g id="Group_5" data-name="Group 5" transform="translate(-913 -1194)">
    <g id="Rectangle_6" data-name="Rectangle 6" transform="translate(913 1194)" fill="#fff" stroke="#707070" stroke-width="1">
      <rect width="229" height="67" rx="33.5" stroke="none"/>
      <rect x="0.5" y="0.5" width="228" height="66" rx="33" fill="none"/>
    </g>
    <path id="check_box_FILL0_wght400_GRAD0_opsz48" d="M9,42a2.878,2.878,0,0,1-2.1-.9A2.878,2.878,0,0,1,6,39V9a2.878,2.878,0,0,1,.9-2.1A2.878,2.878,0,0,1,9,6H39a2.878,2.878,0,0,1,2.1.9A2.878,2.878,0,0,1,42,9V39a3.076,3.076,0,0,1-3,3Zm0-3H39V9H9Zm11.95-7.65a1.468,1.468,0,0,0,.55-.1,1.524,1.524,0,0,0,.5-.35L34.35,18.55a1.506,1.506,0,0,0,.425-1.05,1.414,1.414,0,0,0-.425-1.1,1.509,1.509,0,0,0-2.15,0L20.95,27.65l-4.9-4.9a1.476,1.476,0,0,0-1.025-.425,1.383,1.383,0,0,0-1.075.425,1.509,1.509,0,0,0,0,2.15l5.95,6a1.524,1.524,0,0,0,.5.35,1.468,1.468,0,0,0,.55.1ZM9,39v0Z" transform="translate(936 1205)"/>
    <text id="Grades" transform="translate(1003 1237)" fill="#494242" font-size="25" font-family="SansSerifBold, SansSerif"><tspan x="0" y="0">Grades</tspan></text>
  </g>
</svg>
