<svg xmlns="http://www.w3.org/2000/svg" width="229" height="67" viewBox="0 0 229 67">
  <g id="Group_2" data-name="Group 2" transform="translate(-640 -1194)">
    <g id="Rectangle_3" data-name="Rectangle 3" transform="translate(640 1194)" fill="#fff" stroke="#707070" stroke-width="1">
      <rect width="229" height="67" rx="33.5" stroke="none"/>
      <rect x="0.5" y="0.5" width="228" height="66" rx="33" fill="none"/>
    </g>
    <path id="home_FILL0_wght400_GRAD0_opsz48" d="M11,39h7.5V26.5h11V39H37V19.5L24,9.75,11,19.5Zm0,3a2.988,2.988,0,0,1-3-3V19.5a2.983,2.983,0,0,1,.325-1.35A2.847,2.847,0,0,1,9.2,17.1l13-9.75a2.978,2.978,0,0,1,3.6,0l13,9.75a2.847,2.847,0,0,1,.875,1.05A2.983,2.983,0,0,1,40,19.5V39a2.988,2.988,0,0,1-3,3H26.5V29.5h-5V42ZM24,24.35Z" transform="translate(662 1203.125)"/>
    <text id="Home" transform="translate(727 1239)" fill="#494242" font-size="25" font-family="SansSerifBold, SansSerif"><tspan x="0" y="0">Home</tspan></text>
  </g>
</svg>
