<svg xmlns="http://www.w3.org/2000/svg" width="229" height="67" viewBox="0 0 229 67">
  <g id="Group_6" data-name="Group 6" transform="translate(-913 -1307)">
    <g id="Rectangle_7" data-name="Rectangle 7" transform="translate(913 1307)" fill="#fff" stroke="#707070" stroke-width="1">
      <rect width="229" height="67" rx="33.5" stroke="none"/>
      <rect x="0.5" y="0.5" width="228" height="66" rx="33" fill="none"/>
    </g>
    <path id="all_inbox_FILL0_wght400_GRAD0_opsz48" d="M27,31.2a7.247,7.247,0,0,1-4.05-1.175A7.607,7.607,0,0,1,20.2,26.85H13V35H41V26.85H33.8a7.218,7.218,0,0,1-2.725,3.175A7.368,7.368,0,0,1,27,31.2Zm0-3a4.21,4.21,0,0,0,2.775-.975A5.013,5.013,0,0,0,31.4,24.65a1.013,1.013,0,0,1,.375-.6,1.619,1.619,0,0,1,.925-.2H41V7H13V23.85h8.3a1.619,1.619,0,0,1,.925.2,1.013,1.013,0,0,1,.375.6,5.013,5.013,0,0,0,1.625,2.575A4.21,4.21,0,0,0,27,28.2ZM27,35h0ZM13,38a3.076,3.076,0,0,1-3-3V7a2.878,2.878,0,0,1,.9-2.1A2.878,2.878,0,0,1,13,4H41a2.878,2.878,0,0,1,2.1.9A2.878,2.878,0,0,1,44,7V35a3.076,3.076,0,0,1-3,3ZM7,44a2.878,2.878,0,0,1-2.1-.9A2.878,2.878,0,0,1,4,41V11.5A1.454,1.454,0,0,1,5.5,10,1.454,1.454,0,0,1,7,11.5V41H36.5a1.5,1.5,0,1,1,0,3Z" transform="translate(936 1319)"/>
    <text id="Inbox" transform="translate(1005 1352)" fill="#494242" font-size="25" font-family="SansSerifBold, SansSerif"><tspan x="0" y="0">Inbox</tspan></text>
  </g>
</svg>
