<svg xmlns="http://www.w3.org/2000/svg" width="229" height="67" viewBox="0 0 229 67">
  <g id="Group_8" data-name="Group 8" transform="translate(-368 -1307)">
    <g id="Rectangle_4" data-name="Rectangle 4" transform="translate(368 1307)" fill="#fff" stroke="#707070" stroke-width="1">
      <rect width="229" height="67" rx="33.5" stroke="none"/>
      <rect x="0.5" y="0.5" width="228" height="66" rx="33" fill="none"/>
    </g>
    <path id="backpack_FILL0_wght400_GRAD0_opsz48" d="M11,44a2.988,2.988,0,0,1-3-3V15.5a7.353,7.353,0,0,1,6-7.3V6.5a2.51,2.51,0,0,1,4.275-1.775A2.414,2.414,0,0,1,19,6.5V8H29V6.5a2.5,2.5,0,1,1,5,0V8.2a7.353,7.353,0,0,1,6,7.3V41a2.988,2.988,0,0,1-3,3Zm0-3H37V15.5A4.44,4.44,0,0,0,32.5,11h-17a4.373,4.373,0,0,0-3.175,1.3A4.307,4.307,0,0,0,11,15.5Zm21.5-9.5A1.454,1.454,0,0,0,34,30V26a1.454,1.454,0,0,0-1.5-1.5h-17a1.5,1.5,0,1,0,0,3H31V30a1.454,1.454,0,0,0,1.5,1.5ZM24,26Z" transform="translate(387 1318)"/>
    <text id="My_Tasks" data-name="My Tasks" transform="translate(452 1351)" fill="#494242" font-size="25" font-family="SansSerifBold, SansSerif"><tspan x="0" y="0">My Tasks</tspan></text>
  </g>
</svg>
