<svg xmlns="http://www.w3.org/2000/svg" width="32" height="40" viewBox="0 0 32 40">
  <path id="notifications_FILL0_wght400_GRAD0_opsz48" d="M9.5,38a1.5,1.5,0,1,1,0-3h2.7V19.7a12.136,12.136,0,0,1,2.475-7.425A10.594,10.594,0,0,1,21.2,8.1V6.65a2.456,2.456,0,0,1,.825-1.9,2.975,2.975,0,0,1,3.95,0,2.456,2.456,0,0,1,.825,1.9V8.1a10.7,10.7,0,0,1,6.55,4.175,12.056,12.056,0,0,1,2.5,7.425V35H38.5a1.5,1.5,0,1,1,0,3ZM24,23.25ZM24,44a3.877,3.877,0,0,1-2.8-1.175A3.812,3.812,0,0,1,20,40h8a4.012,4.012,0,0,1-4,4Zm-8.8-9H32.85V19.7a8.686,8.686,0,0,0-2.525-6.325A8.375,8.375,0,0,0,24.1,10.8a8.794,8.794,0,0,0-8.9,8.9Z" transform="translate(-8 -4)"/>
</svg>
