<svg xmlns="http://www.w3.org/2000/svg" width="32" height="31.05" viewBox="0 0 32 31.05">
  <g id="Group_9" data-name="Group 9" transform="translate(-1030 -340.5)">
    <path id="person_FILL0_wght400_GRAD0_opsz48" d="M24,23.95a7.193,7.193,0,0,1-7.5-7.5A7.193,7.193,0,0,1,24,8.95a7.193,7.193,0,0,1,7.5,7.5,7.193,7.193,0,0,1-7.5,7.5ZM37,40H11a2.988,2.988,0,0,1-3-3V35.3a5.5,5.5,0,0,1,.95-3.25A6.1,6.1,0,0,1,11.4,30a37.583,37.583,0,0,1,6.425-2.25A25.973,25.973,0,0,1,24,27a24.88,24.88,0,0,1,6.15.775A42.593,42.593,0,0,1,36.55,30a6.028,6.028,0,0,1,2.5,2.05A5.5,5.5,0,0,1,40,35.3V37a2.988,2.988,0,0,1-3,3ZM11,37H37V35.3a2.739,2.739,0,0,0-.475-1.525A3.01,3.01,0,0,0,35.35,32.7a26.551,26.551,0,0,0-5.85-2.125A25.869,25.869,0,0,0,24,30a26.573,26.573,0,0,0-5.55.575A25.4,25.4,0,0,0,12.6,32.7,3.008,3.008,0,0,0,11,35.3ZM24,20.95a4.361,4.361,0,0,0,4.5-4.5,4.361,4.361,0,0,0-4.5-4.5,4.361,4.361,0,0,0-4.5,4.5,4.361,4.361,0,0,0,4.5,4.5ZM24,16.45ZM24,37Z" transform="translate(1022 331.55)"/>
  </g>
</svg>
